<svg width="8" height="16" viewBox="0 0 8 16" fill="none" xmlns="http://www.w3.org/2000/svg">
<path d="M8 4.19476C7.994 1.8766 6.20555 0 4 0C1.79445 0 0.0060015 1.8766 0 4.19476V11.6129V12.8492C0.0330083 14.5996 1.39535 16 3.06077 16C4.72618 16 6.08552 14.5996 6.11853 12.8492V11.3637V4.68677C6.11253 3.45989 5.16729 2.46954 4 2.46954C2.83271 2.46954 1.88747 3.45989 1.88147 4.68677V11.3668C1.88147 11.6412 2.09152 11.862 2.35259 11.862C2.61365 11.862 2.82371 11.6412 2.82371 11.3668V4.68677C2.82371 4.00237 3.34884 3.45042 4 3.45042C4.65116 3.45042 5.17629 4.00237 5.17629 4.68677L5.1793 11.3668V12.8524C5.1793 14.0824 4.23106 15.079 3.06077 15.079C1.89047 15.079 0.942236 14.0824 0.942236 12.8524V11.616L0.939235 4.68993V4.19476C0.966242 2.438 2.32858 1.02819 4 1.02819C5.67142 1.02819 7.03376 2.438 7.06077 4.19476V11.616C7.06077 11.7926 7.15079 11.9566 7.29482 12.0449C7.44186 12.1333 7.61891 12.1333 7.76594 12.0449C7.91298 11.9566 8 11.7926 8 11.616V4.19476Z" fill="#7D7D7D"/>
</svg>
